<?xml version="1.0" encoding="utf-8"?>
<!-- Generator: Adobe Illustrator 19.2.1, SVG Export Plug-In . SVG Version: 6.00 Build 0)  -->
<svg version="1.1" id="layer" xmlns="http://www.w3.org/2000/svg" xmlns:xlink="http://www.w3.org/1999/xlink" x="0px" y="0px"
	 viewBox="0 0 652 652" style="enable-background:new 0 0 652 652;" xml:space="preserve">
<style type="text/css">
	.st0{fill:#FFC000;}
	.st1{fill:#050400;}
	.st2{fill:#FFFFFF;}
</style>
<path id="Path_6" class="st0" d="M43.3,321c0-28.5,23.1-51.5,51.5-51.5s51.5,23.1,51.5,51.5c0,28.5-23.1,51.5-51.5,51.5
	c-11.8,0-23.2-4-32.3-11.4l-15.1,15.1c30.5,26.2,76.5,22.7,102.7-7.8c26.2-30.5,22.7-76.5-7.8-102.7S65.8,243,39.6,273.5
	c-20.3,23.7-23.3,57.7-7.4,84.6L48,342.3C44.9,335.6,43.3,328.4,43.3,321z"/>
<circle id="Ellipse_1-2" class="st1" cx="94.9" cy="321" r="40.8"/>
<path class="st2" d="M94.9,289.9c8.4,0,15.1,6.8,15.1,15.1c0,8.4-6.8,15.1-15.1,15.1s-15.1-6.8-15.1-15.1
	C79.8,296.7,86.5,289.9,94.9,289.9z M95.3,354.7l30.4-30.4c0.2-0.2,0.2-0.6,0-0.9c-0.1-0.1-0.3-0.2-0.4-0.2H64.5
	c-0.4,0-0.7,0.3-0.7,0.6c0,0,0,0,0,0c0,0.2,0.1,0.3,0.2,0.4l30.4,30.4C94.7,355,95.1,355,95.3,354.7z"/>
<path id="Path_8" d="M327.7,359.8c9.1-9.4,14-22.1,13.7-35.2c0.3-13.1-4.7-25.8-13.7-35.3c-9.6-9.7-22.9-15-36.5-14.4
	c-13.7-0.6-26.9,4.6-36.5,14.4c-9.1,9.5-14,22.2-13.7,35.3c-0.3,13.1,4.6,25.7,13.7,35.2c9.5,9.8,22.8,15.1,36.5,14.5
	C304.9,374.9,318.2,369.6,327.7,359.8z M291.2,354.8c-7.7,0.4-15.2-2.8-20.3-8.7c-5.1-6-7.6-13.7-7.3-21.5
	c-0.4-7.9,2.2-15.6,7.3-21.6c5.1-5.9,12.5-9,20.3-8.6c7.7-0.4,15.2,2.8,20.3,8.6c4.9,6.1,7.5,13.8,7.3,21.6
	c0.3,7.8-2.3,15.4-7.3,21.5C306.4,351.9,298.9,355.1,291.2,354.8z M378.9,373.6c17.6,0,28.3-8.9,28.3-22.3c0-9-6.2-15.3-16.4-18
	l-15.3-4.2c-3.6-0.9-5.5-3-5.5-5.8c0-3.2,3-5.4,7.4-5.4c5.5,0,8.9,2.7,8.9,7.1h20.3c0-12.5-10.2-20.1-28.9-20.1
	c-16.8,0-27.7,8.3-27.7,20.5c0,9.3,5.6,16,16.2,18.7l15.9,4c2.8,0.3,4.9,2.7,4.7,5.5c0,3.8-3.1,6-7.5,6c-6.3,0-10.6-3.2-10.6-7.7
	h-20.4c0,6.2,3.1,12,8.3,15.4C363.2,371.9,371,374,378.9,373.6z M453,355.6c-5.9,0-9-2.3-9-11v-21.5h14.6v-16.2H444v-19.2h-20.5
	v19.2h-10.2v16.2h10.2v25.8c-0.3,6.3,1.5,12.6,5.2,17.7c4.8,4.4,11.2,6.6,17.7,6c4.6,0,9.2-0.3,13.7-1.1v-16.4
	C457.7,355.5,455.4,355.6,453,355.6L453,355.6z M497.3,373.3c8.3,0.3,16.1-3.9,20.5-10.9v9.1h20.4v-64.7h-20.4v9.3
	c-4.2-7.2-12-11.4-20.3-11c-8.5-0.3-16.7,3.2-22.3,9.7c-5.8,6.8-8.8,15.5-8.5,24.4c-0.4,8.9,2.5,17.7,8.2,24.6
	C480.6,370.2,488.8,373.7,497.3,373.3z M503.2,356.3c-9.3,0-15.4-7-15.4-17c0-10.1,6.2-16.9,15.4-16.9c9.8,0,15.4,7.3,15.4,16.9
	C518.6,349,513,356.3,503.2,356.3z M601.5,310.6h0.1v5.5c-4.2-7.2-12-11.4-20.3-11c-8.5-0.3-16.7,3.2-22.3,9.7
	c-5.8,6.8-8.8,15.5-8.5,24.4c-0.4,8.9,2.5,17.7,8.2,24.6c5.6,6.4,13.8,9.9,22.3,9.5c8.3,0.3,16.1-3.9,20.5-10.9v9.1H622v-94h-20.5
	V310.6z M587,356.3c-9.3,0-15.4-7-15.4-17c0-10.1,6.2-16.9,15.4-16.9c9.8,0,15.4,7.3,15.4,16.9C602.4,349,596.8,356.3,587,356.3z"/>
</svg>
